# Wavefront OBJ file automatically generated by Tiled2Unity

# Vertices (Count = 302)
v 0 -20 0
v -1 -20 0
v -1 -19 0
v 0 -19 0
v -2 -20 0
v -2 -19 0
v -3 -20 0
v -3 -19 0
v -4 -20 0
v -4 -19 0
v -5 -20 0
v -5 -19 0
v -6 -20 0
v -6 -19 0
v -7 -20 0
v -7 -19 0
v -8 -20 0
v -8 -19 0
v -9 -20 0
v -9 -19 0
v -10 -20 0
v -10 -19 0
v -11 -20 0
v -11 -19 0
v -12 -20 0
v -12 -19 0
v -13 -20 0
v -13 -19 0
v -24 -20 0
v -25 -20 0
v -25 -19 0
v -24 -19 0
v -26 -20 0
v -26 -19 0
v -27 -20 0
v -27 -19 0
v -28 -20 0
v -28 -19 0
v -29 -20 0
v -29 -19 0
v -30 -20 0
v -30 -19 0
v 0 -21 0
v -1 -21 0
v -2 -21 0
v -3 -21 0
v -4 -21 0
v -5 -21 0
v -6 -21 0
v -7 -21 0
v -8 -21 0
v -9 -21 0
v -10 -21 0
v -11 -21 0
v -12 -21 0
v -13 -21 0
v -24 -21 0
v -25 -21 0
v -26 -21 0
v -27 -21 0
v -28 -21 0
v -29 -21 0
v -30 -21 0
v 0 -22 0
v -1 -22 0
v -2 -22 0
v -3 -22 0
v -4 -22 0
v -5 -22 0
v -6 -22 0
v -7 -22 0
v -8 -22 0
v -9 -22 0
v -10 -22 0
v -11 -22 0
v -12 -22 0
v -13 -22 0
v -24 -22 0
v -25 -22 0
v -26 -22 0
v -27 -22 0
v -28 -22 0
v -29 -22 0
v -30 -22 0
v 0 -23 0
v -1 -23 0
v -2 -23 0
v -3 -23 0
v -4 -23 0
v -5 -23 0
v -6 -23 0
v -7 -23 0
v -8 -23 0
v -9 -23 0
v -10 -23 0
v -11 -23 0
v -12 -23 0
v -13 -23 0
v -24 -23 0
v -25 -23 0
v -26 -23 0
v -27 -23 0
v -28 -23 0
v -29 -23 0
v -30 -23 0
v 0 -24 0
v -1 -24 0
v -2 -24 0
v -3 -24 0
v -4 -24 0
v -5 -24 0
v -6 -24 0
v -7 -24 0
v -8 -24 0
v -9 -24 0
v -10 -24 0
v -11 -24 0
v -12 -24 0
v -13 -24 0
v -24 -24 0
v -25 -24 0
v -26 -24 0
v -27 -24 0
v -28 -24 0
v -29 -24 0
v -30 -24 0
v 0 -25 0
v -1 -25 0
v -2 -25 0
v -3 -25 0
v -4 -25 0
v -5 -25 0
v -6 -25 0
v -7 -25 0
v -8 -25 0
v -9 -25 0
v -10 -25 0
v -11 -25 0
v -12 -25 0
v -13 -25 0
v -24 -25 0
v -25 -25 0
v -26 -25 0
v -27 -25 0
v -28 -25 0
v -29 -25 0
v -30 -25 0
v 0 -26 0
v -1 -26 0
v -2 -26 0
v -3 -26 0
v -4 -26 0
v -5 -26 0
v -6 -26 0
v -7 -26 0
v -8 -26 0
v -9 -26 0
v -10 -26 0
v -11 -26 0
v -12 -26 0
v -13 -26 0
v -24 -26 0
v -25 -26 0
v -26 -26 0
v -27 -26 0
v -28 -26 0
v -29 -26 0
v -30 -26 0
v 0 -27 0
v -1 -27 0
v -2 -27 0
v -3 -27 0
v -4 -27 0
v -5 -27 0
v -6 -27 0
v -7 -27 0
v -8 -27 0
v -9 -27 0
v -10 -27 0
v -11 -27 0
v -12 -27 0
v -13 -27 0
v -14 -27 0
v -14 -26 0
v -15 -27 0
v -15 -26 0
v -16 -27 0
v -16 -26 0
v -17 -27 0
v -17 -26 0
v -18 -27 0
v -18 -26 0
v -19 -27 0
v -19 -26 0
v -20 -27 0
v -20 -26 0
v -21 -27 0
v -21 -26 0
v -22 -27 0
v -22 -26 0
v -23 -27 0
v -23 -26 0
v -24 -27 0
v -25 -27 0
v -26 -27 0
v -27 -27 0
v -28 -27 0
v -29 -27 0
v -30 -27 0
v 0 -28 0
v -1 -28 0
v -2 -28 0
v -3 -28 0
v -4 -28 0
v -5 -28 0
v -6 -28 0
v -7 -28 0
v -8 -28 0
v -9 -28 0
v -10 -28 0
v -11 -28 0
v -12 -28 0
v -13 -28 0
v -14 -28 0
v -15 -28 0
v -16 -28 0
v -17 -28 0
v -18 -28 0
v -19 -28 0
v -20 -28 0
v -21 -28 0
v -22 -28 0
v -23 -28 0
v -24 -28 0
v -25 -28 0
v -26 -28 0
v -27 -28 0
v -28 -28 0
v -29 -28 0
v -30 -28 0
v 0 -29 0
v -1 -29 0
v -2 -29 0
v -3 -29 0
v -4 -29 0
v -5 -29 0
v -6 -29 0
v -7 -29 0
v -8 -29 0
v -9 -29 0
v -10 -29 0
v -11 -29 0
v -12 -29 0
v -13 -29 0
v -14 -29 0
v -15 -29 0
v -16 -29 0
v -17 -29 0
v -18 -29 0
v -19 -29 0
v -20 -29 0
v -21 -29 0
v -22 -29 0
v -23 -29 0
v -24 -29 0
v -25 -29 0
v -26 -29 0
v -27 -29 0
v -28 -29 0
v -29 -29 0
v -30 -29 0
v 0 -30 0
v -1 -30 0
v -2 -30 0
v -3 -30 0
v -4 -30 0
v -5 -30 0
v -6 -30 0
v -7 -30 0
v -8 -30 0
v -9 -30 0
v -10 -30 0
v -11 -30 0
v -12 -30 0
v -13 -30 0
v -14 -30 0
v -15 -30 0
v -16 -30 0
v -17 -30 0
v -18 -30 0
v -19 -30 0
v -20 -30 0
v -21 -30 0
v -22 -30 0
v -23 -30 0
v -24 -30 0
v -25 -30 0
v -26 -30 0
v -27 -30 0
v -28 -30 0
v -29 -30 0
v -30 -30 0

# Texture cooridinates (Count = 36)
vt 0.4285889 0.4000244
vt 0.5714111 0.4000244
vt 0.5714111 0.5999756
vt 0.4285889 0.5999756
vt 0.1428746 0.8000244
vt 0.2856968 0.8000244
vt 0.2856968 0.9999756
vt 0.1428746 0.9999756
vt 0.571446 0.4000244
vt 0.7142683 0.4000244
vt 0.7142683 0.5999756
vt 0.571446 0.5999756
vt 0.1428746 2.44379E-05
vt 0.2856968 2.44379E-05
vt 0.2856968 0.1999756
vt 0.1428746 0.1999756
vt 0.571446 2.44379E-05
vt 0.7142683 2.44379E-05
vt 0.7142683 0.1999756
vt 0.571446 0.1999756
vt 0.4285889 2.44379E-05
vt 0.5714111 2.44379E-05
vt 0.5714111 0.1999756
vt 0.4285889 0.1999756
vt 0.2857317 2.44379E-05
vt 0.428554 2.44379E-05
vt 0.428554 0.1999756
vt 0.2857317 0.1999756
vt 1.743862E-05 2.44379E-05
vt 0.1428397 2.44379E-05
vt 0.1428397 0.1999756
vt 1.743862E-05 0.1999756
vt 0.7143031 2.44379E-05
vt 0.8571254 2.44379E-05
vt 0.8571254 0.1999756
vt 0.7143031 0.1999756

# Normal
vn 0 0 -1

# Groups (Count = 1)

g mesh_0001
f 1/1/1 2/2/1 3/3/1 4/4/1
f 2/5/1 5/6/1 6/7/1 3/8/1
f 5/5/1 7/6/1 8/7/1 6/8/1
f 7/5/1 9/6/1 10/7/1 8/8/1
f 9/5/1 11/6/1 12/7/1 10/8/1
f 11/5/1 13/6/1 14/7/1 12/8/1
f 13/5/1 15/6/1 16/7/1 14/8/1
f 15/5/1 17/6/1 18/7/1 16/8/1
f 17/5/1 19/6/1 20/7/1 18/8/1
f 19/5/1 21/6/1 22/7/1 20/8/1
f 21/5/1 23/6/1 24/7/1 22/8/1
f 23/5/1 25/6/1 26/7/1 24/8/1
f 25/9/1 27/10/1 28/11/1 26/12/1
f 29/1/1 30/2/1 31/3/1 32/4/1
f 30/5/1 33/6/1 34/7/1 31/8/1
f 33/5/1 35/6/1 36/7/1 34/8/1
f 35/5/1 37/6/1 38/7/1 36/8/1
f 37/5/1 39/6/1 40/7/1 38/8/1
f 39/9/1 41/10/1 42/11/1 40/12/1
f 43/13/1 44/14/1 2/15/1 1/16/1
f 44/17/1 45/18/1 5/19/1 2/20/1
f 45/21/1 46/22/1 7/23/1 5/24/1
f 46/25/1 47/26/1 9/27/1 7/28/1
f 47/29/1 48/30/1 11/31/1 9/32/1
f 48/29/1 49/30/1 13/31/1 11/32/1
f 49/21/1 50/22/1 15/23/1 13/24/1
f 50/13/1 51/14/1 17/15/1 15/16/1
f 51/13/1 52/14/1 19/15/1 17/16/1
f 52/21/1 53/22/1 21/23/1 19/24/1
f 53/29/1 54/30/1 23/31/1 21/32/1
f 54/25/1 55/26/1 25/27/1 23/28/1
f 55/21/1 56/22/1 27/23/1 25/24/1
f 57/17/1 58/18/1 30/19/1 29/20/1
f 58/29/1 59/30/1 33/31/1 30/32/1
f 59/21/1 60/22/1 35/23/1 33/24/1
f 60/25/1 61/26/1 37/27/1 35/28/1
f 61/33/1 62/34/1 39/35/1 37/36/1
f 62/29/1 63/30/1 41/31/1 39/32/1
f 64/29/1 65/30/1 44/31/1 43/32/1
f 65/25/1 66/26/1 45/27/1 44/28/1
f 66/25/1 67/26/1 46/27/1 45/28/1
f 67/17/1 68/18/1 47/19/1 46/20/1
f 68/29/1 69/30/1 48/31/1 47/32/1
f 69/21/1 70/22/1 49/23/1 48/24/1
f 70/29/1 71/30/1 50/31/1 49/32/1
f 71/29/1 72/30/1 51/31/1 50/32/1
f 72/13/1 73/14/1 52/15/1 51/16/1
f 73/17/1 74/18/1 53/19/1 52/20/1
f 74/29/1 75/30/1 54/31/1 53/32/1
f 75/25/1 76/26/1 55/27/1 54/28/1
f 76/25/1 77/26/1 56/27/1 55/28/1
f 78/29/1 79/30/1 58/31/1 57/32/1
f 79/13/1 80/14/1 59/15/1 58/16/1
f 80/25/1 81/26/1 60/27/1 59/28/1
f 81/21/1 82/22/1 61/23/1 60/24/1
f 82/33/1 83/34/1 62/35/1 61/36/1
f 83/21/1 84/22/1 63/23/1 62/24/1
f 85/25/1 86/26/1 65/27/1 64/28/1
f 86/25/1 87/26/1 66/27/1 65/28/1
f 87/33/1 88/34/1 67/35/1 66/36/1
f 88/17/1 89/18/1 68/19/1 67/20/1
f 89/13/1 90/14/1 69/15/1 68/16/1
f 90/21/1 91/22/1 70/23/1 69/24/1
f 91/21/1 92/22/1 71/23/1 70/24/1
f 92/25/1 93/26/1 72/27/1 71/28/1
f 93/17/1 94/18/1 73/19/1 72/20/1
f 94/21/1 95/22/1 74/23/1 73/24/1
f 95/29/1 96/30/1 75/31/1 74/32/1
f 96/17/1 97/18/1 76/19/1 75/20/1
f 97/13/1 98/14/1 77/15/1 76/16/1
f 99/25/1 100/26/1 79/27/1 78/28/1
f 100/25/1 101/26/1 80/27/1 79/28/1
f 101/13/1 102/14/1 81/15/1 80/16/1
f 102/13/1 103/14/1 82/15/1 81/16/1
f 103/13/1 104/14/1 83/15/1 82/16/1
f 104/17/1 105/18/1 84/19/1 83/20/1
f 106/25/1 107/26/1 86/27/1 85/28/1
f 107/21/1 108/22/1 87/23/1 86/24/1
f 108/13/1 109/14/1 88/15/1 87/16/1
f 109/21/1 110/22/1 89/23/1 88/24/1
f 110/17/1 111/18/1 90/19/1 89/20/1
f 111/13/1 112/14/1 91/15/1 90/16/1
f 112/21/1 113/22/1 92/23/1 91/24/1
f 113/25/1 114/26/1 93/27/1 92/28/1
f 114/33/1 115/34/1 94/35/1 93/36/1
f 115/33/1 116/34/1 95/35/1 94/36/1
f 116/29/1 117/30/1 96/31/1 95/32/1
f 117/33/1 118/34/1 97/35/1 96/36/1
f 118/29/1 119/30/1 98/31/1 97/32/1
f 120/25/1 121/26/1 100/27/1 99/28/1
f 121/21/1 122/22/1 101/23/1 100/24/1
f 122/21/1 123/22/1 102/23/1 101/24/1
f 123/25/1 124/26/1 103/27/1 102/28/1
f 124/33/1 125/34/1 104/35/1 103/36/1
f 125/13/1 126/14/1 105/15/1 104/16/1
f 127/17/1 128/18/1 107/19/1 106/20/1
f 128/21/1 129/22/1 108/23/1 107/24/1
f 129/29/1 130/30/1 109/31/1 108/32/1
f 130/13/1 131/14/1 110/15/1 109/16/1
f 131/13/1 132/14/1 111/15/1 110/16/1
f 132/29/1 133/30/1 112/31/1 111/32/1
f 133/29/1 134/30/1 113/31/1 112/32/1
f 134/17/1 135/18/1 114/19/1 113/20/1
f 135/17/1 136/18/1 115/19/1 114/20/1
f 136/29/1 137/30/1 116/31/1 115/32/1
f 137/29/1 138/30/1 117/31/1 116/32/1
f 138/13/1 139/14/1 118/15/1 117/16/1
f 139/33/1 140/34/1 119/35/1 118/36/1
f 141/17/1 142/18/1 121/19/1 120/20/1
f 142/29/1 143/30/1 122/31/1 121/32/1
f 143/29/1 144/30/1 123/31/1 122/32/1
f 144/17/1 145/18/1 124/19/1 123/20/1
f 145/25/1 146/26/1 125/27/1 124/28/1
f 146/33/1 147/34/1 126/35/1 125/36/1
f 148/25/1 149/26/1 128/27/1 127/28/1
f 149/29/1 150/30/1 129/31/1 128/32/1
f 150/21/1 151/22/1 130/23/1 129/24/1
f 151/13/1 152/14/1 131/15/1 130/16/1
f 152/25/1 153/26/1 132/27/1 131/28/1
f 153/13/1 154/14/1 133/15/1 132/16/1
f 154/33/1 155/34/1 134/35/1 133/36/1
f 155/33/1 156/34/1 135/35/1 134/36/1
f 156/21/1 157/22/1 136/23/1 135/24/1
f 157/29/1 158/30/1 137/31/1 136/32/1
f 158/33/1 159/34/1 138/35/1 137/36/1
f 159/21/1 160/22/1 139/23/1 138/24/1
f 160/29/1 161/30/1 140/31/1 139/32/1
f 162/21/1 163/22/1 142/23/1 141/24/1
f 163/21/1 164/22/1 143/23/1 142/24/1
f 164/33/1 165/34/1 144/35/1 143/36/1
f 165/17/1 166/18/1 145/19/1 144/20/1
f 166/29/1 167/30/1 146/31/1 145/32/1
f 167/33/1 168/34/1 147/35/1 146/36/1
f 169/13/1 170/14/1 149/15/1 148/16/1
f 170/25/1 171/26/1 150/27/1 149/28/1
f 171/25/1 172/26/1 151/27/1 150/28/1
f 172/17/1 173/18/1 152/19/1 151/20/1
f 173/33/1 174/34/1 153/35/1 152/36/1
f 174/17/1 175/18/1 154/19/1 153/20/1
f 175/33/1 176/34/1 155/35/1 154/36/1
f 176/25/1 177/26/1 156/27/1 155/28/1
f 177/21/1 178/22/1 157/23/1 156/24/1
f 178/17/1 179/18/1 158/19/1 157/20/1
f 179/25/1 180/26/1 159/27/1 158/28/1
f 180/25/1 181/26/1 160/27/1 159/28/1
f 181/13/1 182/14/1 161/15/1 160/16/1
f 182/5/1 183/6/1 184/7/1 161/8/1
f 183/5/1 185/6/1 186/7/1 184/8/1
f 185/5/1 187/6/1 188/7/1 186/8/1
f 187/5/1 189/6/1 190/7/1 188/8/1
f 189/5/1 191/6/1 192/7/1 190/8/1
f 191/5/1 193/6/1 194/7/1 192/8/1
f 193/5/1 195/6/1 196/7/1 194/8/1
f 195/5/1 197/6/1 198/7/1 196/8/1
f 197/5/1 199/6/1 200/7/1 198/8/1
f 199/5/1 201/6/1 202/7/1 200/8/1
f 201/5/1 203/6/1 162/7/1 202/8/1
f 203/17/1 204/18/1 163/19/1 162/20/1
f 204/21/1 205/22/1 164/23/1 163/24/1
f 205/33/1 206/34/1 165/35/1 164/36/1
f 206/33/1 207/34/1 166/35/1 165/36/1
f 207/17/1 208/18/1 167/19/1 166/20/1
f 208/33/1 209/34/1 168/35/1 167/36/1
f 210/21/1 211/22/1 170/23/1 169/24/1
f 211/25/1 212/26/1 171/27/1 170/28/1
f 212/33/1 213/34/1 172/35/1 171/36/1
f 213/33/1 214/34/1 173/35/1 172/36/1
f 214/17/1 215/18/1 174/19/1 173/20/1
f 215/21/1 216/22/1 175/23/1 174/24/1
f 216/21/1 217/22/1 176/23/1 175/24/1
f 217/13/1 218/14/1 177/15/1 176/16/1
f 218/25/1 219/26/1 178/27/1 177/28/1
f 219/21/1 220/22/1 179/23/1 178/24/1
f 220/13/1 221/14/1 180/15/1 179/16/1
f 221/33/1 222/34/1 181/35/1 180/36/1
f 222/21/1 223/22/1 182/23/1 181/24/1
f 223/13/1 224/14/1 183/15/1 182/16/1
f 224/33/1 225/34/1 185/35/1 183/36/1
f 225/17/1 226/18/1 187/19/1 185/20/1
f 226/17/1 227/18/1 189/19/1 187/20/1
f 227/33/1 228/34/1 191/35/1 189/36/1
f 228/25/1 229/26/1 193/27/1 191/28/1
f 229/29/1 230/30/1 195/31/1 193/32/1
f 230/17/1 231/18/1 197/19/1 195/20/1
f 231/33/1 232/34/1 199/35/1 197/36/1
f 232/29/1 233/30/1 201/31/1 199/32/1
f 233/17/1 234/18/1 203/19/1 201/20/1
f 234/17/1 235/18/1 204/19/1 203/20/1
f 235/17/1 236/18/1 205/19/1 204/20/1
f 236/33/1 237/34/1 206/35/1 205/36/1
f 237/17/1 238/18/1 207/19/1 206/20/1
f 238/21/1 239/22/1 208/23/1 207/24/1
f 239/13/1 240/14/1 209/15/1 208/16/1
f 241/25/1 242/26/1 211/27/1 210/28/1
f 242/21/1 243/22/1 212/23/1 211/24/1
f 243/33/1 244/34/1 213/35/1 212/36/1
f 244/29/1 245/30/1 214/31/1 213/32/1
f 245/25/1 246/26/1 215/27/1 214/28/1
f 246/25/1 247/26/1 216/27/1 215/28/1
f 247/17/1 248/18/1 217/19/1 216/20/1
f 248/33/1 249/34/1 218/35/1 217/36/1
f 249/29/1 250/30/1 219/31/1 218/32/1
f 250/25/1 251/26/1 220/27/1 219/28/1
f 251/29/1 252/30/1 221/31/1 220/32/1
f 252/21/1 253/22/1 222/23/1 221/24/1
f 253/13/1 254/14/1 223/15/1 222/16/1
f 254/25/1 255/26/1 224/27/1 223/28/1
f 255/25/1 256/26/1 225/27/1 224/28/1
f 256/13/1 257/14/1 226/15/1 225/16/1
f 257/17/1 258/18/1 227/19/1 226/20/1
f 258/25/1 259/26/1 228/27/1 227/28/1
f 259/33/1 260/34/1 229/35/1 228/36/1
f 260/17/1 261/18/1 230/19/1 229/20/1
f 261/21/1 262/22/1 231/23/1 230/24/1
f 262/13/1 263/14/1 232/15/1 231/16/1
f 263/21/1 264/22/1 233/23/1 232/24/1
f 264/33/1 265/34/1 234/35/1 233/36/1
f 265/25/1 266/26/1 235/27/1 234/28/1
f 266/17/1 267/18/1 236/19/1 235/20/1
f 267/29/1 268/30/1 237/31/1 236/32/1
f 268/21/1 269/22/1 238/23/1 237/24/1
f 269/33/1 270/34/1 239/35/1 238/36/1
f 270/17/1 271/18/1 240/19/1 239/20/1
f 272/13/1 273/14/1 242/15/1 241/16/1
f 273/17/1 274/18/1 243/19/1 242/20/1
f 274/33/1 275/34/1 244/35/1 243/36/1
f 275/25/1 276/26/1 245/27/1 244/28/1
f 276/29/1 277/30/1 246/31/1 245/32/1
f 277/29/1 278/30/1 247/31/1 246/32/1
f 278/33/1 279/34/1 248/35/1 247/36/1
f 279/25/1 280/26/1 249/27/1 248/28/1
f 280/25/1 281/26/1 250/27/1 249/28/1
f 281/21/1 282/22/1 251/23/1 250/24/1
f 282/13/1 283/14/1 252/15/1 251/16/1
f 283/25/1 284/26/1 253/27/1 252/28/1
f 284/13/1 285/14/1 254/15/1 253/16/1
f 285/21/1 286/22/1 255/23/1 254/24/1
f 286/21/1 287/22/1 256/23/1 255/24/1
f 287/29/1 288/30/1 257/31/1 256/32/1
f 288/25/1 289/26/1 258/27/1 257/28/1
f 289/13/1 290/14/1 259/15/1 258/16/1
f 290/25/1 291/26/1 260/27/1 259/28/1
f 291/21/1 292/22/1 261/23/1 260/24/1
f 292/21/1 293/22/1 262/23/1 261/24/1
f 293/29/1 294/30/1 263/31/1 262/32/1
f 294/21/1 295/22/1 264/23/1 263/24/1
f 295/33/1 296/34/1 265/35/1 264/36/1
f 296/13/1 297/14/1 266/15/1 265/16/1
f 297/13/1 298/14/1 267/15/1 266/16/1
f 298/21/1 299/22/1 268/23/1 267/24/1
f 299/25/1 300/26/1 269/27/1 268/28/1
f 300/33/1 301/34/1 270/35/1 269/36/1
f 301/13/1 302/14/1 271/15/1 270/16/1

